<svg width="177" height="121" viewBox="0 0 177 121" fill="none" xmlns="http://www.w3.org/2000/svg">
<path fill-rule="evenodd" clip-rule="evenodd" d="M125.491 36.8932L116.992 51.0946C116.8 51.4165 116.695 51.7843 116.69 52.1603C116.684 52.5363 116.778 52.907 116.961 53.2345C117.144 53.5621 117.41 53.8347 117.732 54.0244C118.054 54.2141 118.42 54.3142 118.793 54.3144H159.442C159.805 54.3146 160.162 54.2203 160.478 54.0407C160.794 53.8611 161.058 53.6021 161.246 53.2891L169.748 39.0852C169.941 38.7632 170.045 38.3954 170.05 38.0196C170.055 37.6437 169.961 37.2733 169.778 36.946C169.594 36.6188 169.328 36.3465 169.006 36.1571C168.684 35.9677 168.318 35.8678 167.945 35.8678H127.291C126.929 35.8675 126.573 35.9618 126.257 36.1415C125.942 36.3211 125.677 36.5801 125.491 36.8932Z" fill="url(#paint0_linear)"/>
<path fill-rule="evenodd" clip-rule="evenodd" d="M127.605 24.0356L136.136 9.78858C136.327 9.46985 136.43 9.10576 136.435 8.73357C136.441 8.36137 136.348 7.99444 136.166 7.67031C135.985 7.34618 135.721 7.0765 135.402 6.88885C135.084 6.7012 134.721 6.60233 134.352 6.60235H37.3356C36.783 6.60235 36.2531 6.82371 35.8623 7.21772C35.4716 7.61173 35.2521 8.14613 35.2521 8.70335V11.9782C35.252 12.2791 35.316 12.5765 35.4398 12.8502L40.4621 23.9661C40.6023 24.2766 40.6654 24.6168 40.6459 24.9574C40.6265 25.298 40.5251 25.6287 40.3505 25.921L6.85232 81.9435C6.66225 82.2621 6.55947 82.626 6.55447 82.9978C6.54947 83.3697 6.64243 83.7362 6.82386 84.0599C7.00529 84.3837 7.26869 84.6531 7.58715 84.8406C7.90561 85.0281 8.26773 85.1271 8.63651 85.1273L88.7755 85.0578C89.3397 85.0638 89.8992 84.9539 90.42 84.7348C90.9408 84.5156 91.4118 84.1919 91.8045 83.7833C91.8497 83.7378 119.838 36.9769 119.838 36.9769C119.905 36.8634 119.941 36.7341 119.943 36.6021C119.944 36.4701 119.911 36.34 119.847 36.225C119.783 36.11 119.689 36.0142 119.576 35.9473C119.463 35.8803 119.335 35.8446 119.204 35.8438H72.0478C71.9203 35.8434 71.7949 35.8763 71.6837 35.9393C71.5725 36.0022 71.4794 36.0931 71.4134 36.2031L62.521 51.0083C62.3298 51.3269 62.2261 51.691 62.2203 52.0634C62.2146 52.4357 62.3071 52.8029 62.4884 53.1273C62.6697 53.4518 62.9333 53.7218 63.2521 53.9097C63.5709 54.0977 63.9335 54.1968 64.3028 54.1969H84.5133C84.8823 54.1973 85.2445 54.2965 85.563 54.4843C85.8814 54.6722 86.1447 54.9419 86.326 55.2659C86.5072 55.59 86.5998 55.9568 86.5944 56.3287C86.589 56.7007 86.4857 57.0646 86.2952 57.3832L81.2752 65.768C81.0902 66.0776 80.8289 66.3337 80.5166 66.5113C80.2044 66.6889 79.8519 66.7819 79.4934 66.7813H41.7759C41.4068 66.7819 41.0443 66.6834 40.7254 66.496C40.4065 66.3087 40.1427 66.0392 39.9611 65.7152C39.7795 65.3912 39.6867 65.0243 39.6921 64.6522C39.6974 64.28 39.8009 63.916 39.9917 63.5975L62.4735 26.0647C62.6585 25.7549 62.9198 25.4986 63.232 25.3207C63.5442 25.1427 63.8967 25.0491 64.2553 25.0489H125.821C126.179 25.0492 126.532 24.9561 126.845 24.7785C127.157 24.601 127.419 24.3451 127.605 24.0356Z" fill="url(#paint1_linear)"/>
<path fill-rule="evenodd" clip-rule="evenodd" d="M150.434 65.1115L109.528 65.0995C109.166 65.0997 108.81 65.1939 108.495 65.3731C108.179 65.5523 107.915 65.8103 107.727 66.1225L99.2527 80.2329C99.0594 80.5549 98.9544 80.9229 98.9485 81.2992C98.9426 81.6756 99.0361 82.0467 99.2194 82.3746C99.4027 82.7025 99.6691 82.9754 99.9914 83.1653C100.314 83.3551 100.68 83.4551 101.054 83.4551H118.13C118.503 83.4555 118.869 83.5557 119.19 83.7453C119.512 83.9349 119.778 84.2072 119.961 84.5343C120.144 84.8615 120.238 85.2318 120.233 85.6075C120.227 85.9831 120.123 86.3506 119.931 86.6724L114.942 95.0165C114.755 95.3291 114.491 95.5877 114.175 95.7673C113.86 95.9469 113.504 96.0415 113.141 96.0419H75.4524C75.0797 96.0413 74.7139 95.9409 74.3922 95.751C74.0706 95.5611 73.8047 95.2884 73.6218 94.961C73.4389 94.6335 73.3455 94.2629 73.3512 93.8872C73.3568 93.5114 73.4613 93.1438 73.654 92.8221L73.9224 92.3741C74.0825 92.1115 74.17 91.8106 74.176 91.5024C74.182 91.1942 74.1062 90.8901 73.9565 90.6213C73.8067 90.3526 73.5885 90.1291 73.3244 89.974C73.0603 89.8188 72.7599 89.7377 72.4542 89.7389H54.8261C54.3687 89.7387 53.919 89.8576 53.5207 90.0843C53.1223 90.311 52.7888 90.6376 52.5525 91.0325L40.5122 111.168C40.3193 111.49 40.2148 111.858 40.2094 112.234C40.2039 112.611 40.2978 112.981 40.4812 113.309C40.6647 113.637 40.9312 113.909 41.2535 114.099C41.5758 114.288 41.9423 114.388 42.3154 114.388H123.495C123.858 114.387 124.214 114.293 124.53 114.112C124.846 113.932 125.111 113.673 125.298 113.36L152.239 68.3217C152.429 67.9995 152.531 67.6325 152.535 67.2578C152.538 66.8831 152.444 66.5141 152.26 66.1881C152.077 65.8622 151.812 65.5909 151.491 65.4018C151.17 65.2128 150.805 65.1126 150.434 65.1115Z" fill="url(#paint2_linear)"/>
<path fill-rule="evenodd" clip-rule="evenodd" d="M175.48 33.6998C174.726 32.3546 173.631 31.2352 172.308 30.4558C170.984 29.6764 169.479 29.2648 167.947 29.263H133.232C133.109 29.2627 132.989 29.2276 132.885 29.1617C132.78 29.0958 132.696 29.0018 132.642 28.8903C132.589 28.7788 132.567 28.6542 132.579 28.5308C132.592 28.4074 132.639 28.2901 132.714 28.1921C132.89 27.9526 141.742 13.2097 141.742 13.2097C142.536 11.8889 142.966 10.3789 142.99 8.83485C143.014 7.29075 142.629 5.76816 141.876 4.42339C141.123 3.07862 140.029 1.96014 138.706 1.18278C137.383 0.405417 135.878 -0.00280838 134.347 1.45417e-05H37.3326C35.0443 0.00255097 32.8504 0.920331 31.2323 2.55199C29.6142 4.18365 28.704 6.39593 28.7015 8.70345V8.81365C28.7775 13.3295 28.8844 14.2781 29.4784 15.591L33.3817 24.2297C33.4261 24.3279 33.446 24.4355 33.4398 24.5432C33.4336 24.6509 33.4014 24.7555 33.3461 24.8478L1.24017 78.5393C0.450251 79.8598 0.022553 81.3682 0.000867746 82.9102C-0.0208175 84.4522 0.364289 85.9722 1.11675 87.3148C1.86922 88.6573 2.962 89.774 4.28321 90.5507C5.60442 91.3273 7.10659 91.7359 8.63589 91.7346L43.3385 91.7059C43.455 91.7055 43.5695 91.7364 43.6701 91.7954C43.7708 91.8544 43.8541 91.9393 43.9115 92.0415C43.9688 92.1438 43.9981 92.2595 43.9964 92.377C43.9946 92.4944 43.9619 92.6092 43.9016 92.7097L34.8975 107.769C34.1058 109.092 33.677 110.604 33.655 112.15C33.6331 113.696 34.0187 115.219 34.7725 116.565C35.5263 117.911 36.6212 119.031 37.9451 119.81C39.2691 120.59 40.7745 121 42.3075 121H123.487C124.979 120.997 126.445 120.608 127.744 119.869C129.043 119.13 130.132 118.067 130.906 116.781L175.352 42.499C176.143 41.1748 176.572 39.6627 176.595 38.1169C176.617 36.571 176.233 35.0468 175.48 33.6998ZM173.485 41.3659L129.027 115.643C128.449 116.603 127.636 117.398 126.666 117.95C125.696 118.503 124.601 118.795 123.487 118.798H42.3075C41.1613 118.799 40.0355 118.492 39.0454 117.91C38.0553 117.327 37.2365 116.49 36.6726 115.484C36.1088 114.478 35.8202 113.339 35.8364 112.183C35.8526 111.027 36.173 109.897 36.7648 108.907L45.7713 93.8476C46.0277 93.4125 46.1657 92.9168 46.1712 92.4107C46.1767 91.9045 46.0496 91.4059 45.8028 90.9652C45.5559 90.5245 45.1981 90.1573 44.7654 89.9008C44.3327 89.6442 43.8405 89.5075 43.3385 89.5043L8.63589 89.5354C7.49339 89.5356 6.37135 89.2297 5.38453 88.6492C4.3977 88.0686 3.5815 87.2342 3.01941 86.2312C2.45731 85.2282 2.1695 84.0926 2.18539 82.9407C2.20129 81.7887 2.52033 80.6617 3.10988 79.6749L35.2158 25.9833C35.4532 25.5845 35.5911 25.1335 35.6176 24.669C35.644 24.2046 35.5584 23.7407 35.3679 23.317L31.4645 14.6782C31.0583 13.7822 30.9561 13.1282 30.8848 8.7849V8.69626C30.888 6.97351 31.5685 5.32232 32.7772 4.10482C33.986 2.88732 35.6242 2.20289 37.3326 2.20163H134.347C135.489 2.20155 136.611 2.50754 137.597 3.08827C138.584 3.66899 139.4 4.50361 139.962 5.50672C140.523 6.50982 140.811 7.64539 140.794 8.79723C140.778 9.94907 140.458 11.0758 139.868 12.0622C136.494 17.6848 131.379 26.1966 130.918 26.9296C130.62 27.3589 130.444 27.8622 130.41 28.385C130.375 28.9078 130.482 29.4303 130.72 29.8959C130.959 30.3616 131.319 30.7528 131.761 31.0271C132.204 31.3015 132.713 31.4486 133.232 31.4526L167.947 31.4646C169.093 31.4652 170.219 31.7728 171.208 32.356C172.198 32.9391 173.016 33.7768 173.579 34.7834C174.143 35.79 174.431 36.9295 174.414 38.0852C174.398 39.2409 174.077 40.3714 173.485 41.3611V41.3659Z" fill="url(#paint3_linear)"/>
<defs>
<linearGradient id="paint0_linear" x1="88" y1="-5" x2="88" y2="134" gradientUnits="userSpaceOnUse">
<stop stop-color="white"/>
<stop offset="0.760417" stop-color="white" stop-opacity="0"/>
</linearGradient>
<linearGradient id="paint1_linear" x1="88" y1="-5" x2="88" y2="134" gradientUnits="userSpaceOnUse">
<stop stop-color="white"/>
<stop offset="0.760417" stop-color="white" stop-opacity="0"/>
</linearGradient>
<linearGradient id="paint2_linear" x1="88" y1="-5" x2="88" y2="134" gradientUnits="userSpaceOnUse">
<stop stop-color="white"/>
<stop offset="0.760417" stop-color="white" stop-opacity="0"/>
</linearGradient>
<linearGradient id="paint3_linear" x1="88" y1="-5" x2="88" y2="134" gradientUnits="userSpaceOnUse">
<stop stop-color="white"/>
<stop offset="0.760417" stop-color="white" stop-opacity="0"/>
</linearGradient>
</defs>
</svg>
